<?xml version="1.0" standalone="no"?><!DOCTYPE svg PUBLIC "-//W3C//DTD SVG 1.1//EN" "http://www.w3.org/Graphics/SVG/1.1/DTD/svg11.dtd"><svg t="1670490516853" class="icon" viewBox="0 0 1024 1024" version="1.1" xmlns="http://www.w3.org/2000/svg" p-id="1765" xmlns:xlink="http://www.w3.org/1999/xlink" width="200" height="200"><path d="M512 0C229.248 0 0 229.248 0 512s229.248 512 512 512 512-229.248 512-512S794.752 0 512 0zM512 128c82.88 0 159.136 27.008 221.888 71.744L199.616 733.76C154.88 671.008 128 594.752 128 512 128 300.256 300.256 128 512 128zM512 896c-82.88 0-159.136-27.008-221.888-71.744L824.384 290.24C869.12 352.992 896 429.248 896 512 896 723.744 723.744 896 512 896z" p-id="1766"></path></svg>